<svg width="576" height="224" viewBox="0 0 576 224" fill="none" xmlns="http://www.w3.org/2000/svg">
<path d="M0.285156 185V143.6L95.0852 8.00001H152.385V140.6H176.985V185H152.385V224H101.085V185H0.285156ZM104.685 64.4L54.2852 140.6H104.685V64.4Z" fill="white"/>
<path d="M202.113 111.5C202.113 77.1 208.713 50 221.913 30.2C235.312 10.4 256.812 0.5 286.413 0.5C316.013 0.5 337.413 10.4 350.613 30.2C364.013 50 370.713 77.1 370.713 111.5C370.713 146.3 364.013 173.6 350.613 193.4C337.413 213.2 316.013 223.1 286.413 223.1C256.812 223.1 235.312 213.2 221.913 193.4C208.713 173.6 202.113 146.3 202.113 111.5ZM320.312 111.5C320.312 91.3 318.112 75.8 313.712 65C309.312 54 300.212 48.5 286.413 48.5C272.613 48.5 263.513 54 259.113 65C254.713 75.8 252.512 91.3 252.512 111.5C252.512 125.1 253.312 136.4 254.913 145.4C256.513 154.2 259.713 161.4 264.513 167C269.513 172.4 276.812 175.1 286.413 175.1C296.013 175.1 303.212 172.4 308.013 167C313.013 161.4 316.312 154.2 317.913 145.4C319.513 136.4 320.312 125.1 320.312 111.5Z" fill="white"/>
<path d="M399.016 185V143.6L493.816 8.00001H551.116V140.6H575.716V185H551.116V224H499.816V185H399.016ZM503.416 64.4L453.016 140.6H503.416V64.4Z" fill="white"/>
</svg>
