<svg width="26" height="27" viewBox="0 0 26 27" fill="none" xmlns="http://www.w3.org/2000/svg">
<mask id="mask0_1_3689" style="mask-type:alpha" maskUnits="userSpaceOnUse" x="3" y="3" width="21" height="20">
<path d="M12.2888 3.90599C12.5881 2.98468 13.8915 2.98468 14.1909 3.90599L15.8264 8.9398C15.9603 9.35182 16.3443 9.63078 16.7775 9.63078H22.0704C23.0391 9.63078 23.4419 10.8704 22.6581 11.4398L18.3761 14.5509C18.0256 14.8055 17.879 15.2569 18.0129 15.6689L19.6484 20.7027C19.9478 21.624 18.8933 22.3901 18.1096 21.8207L13.8276 18.7097C13.4771 18.455 13.0025 18.455 12.652 18.7097L8.37001 21.8207C7.5863 22.3901 6.53182 21.624 6.83117 20.7027L8.46675 15.6689C8.60063 15.2569 8.45397 14.8055 8.10348 14.5509L3.82147 11.4398C3.03776 10.8704 3.44053 9.63078 4.40926 9.63078H9.70211C10.1353 9.63078 10.5193 9.35182 10.6532 8.9398L12.2888 3.90599Z" fill="#FFA722"/>
</mask>
<g mask="url(#mask0_1_3689)">
<rect x="3.17383" y="1.47009" width="9.82044" height="22.587" rx="1" fill="#FFA722"/>
</g>
</svg>
