<svg width="20" height="21" viewBox="0 0 20 21" fill="none" xmlns="http://www.w3.org/2000/svg">
<path d="M2.5 3.66626H3.00526C3.85578 3.66626 4.56986 4.30668 4.6621 5.15218L5.3379 11.347C5.43014 12.1925 6.14422 12.8329 6.99474 12.8329H14.205C14.9669 12.8329 15.6317 12.3163 15.82 11.5781L16.9699 7.06885C17.2387 6.01504 16.4425 4.99033 15.355 4.99033H5.5M5.52063 15.8537H6.14563M5.52063 16.4787H6.14563M14.6873 15.8537H15.3123M14.6873 16.4787H15.3123M6.66667 16.1663C6.66667 16.6265 6.29357 16.9996 5.83333 16.9996C5.3731 16.9996 5 16.6265 5 16.1663C5 15.706 5.3731 15.3329 5.83333 15.3329C6.29357 15.3329 6.66667 15.706 6.66667 16.1663ZM15.8333 16.1663C15.8333 16.6265 15.4602 16.9996 15 16.9996C14.5398 16.9996 14.1667 16.6265 14.1667 16.1663C14.1667 15.706 14.5398 15.3329 15 15.3329C15.4602 15.3329 15.8333 15.706 15.8333 16.1663Z" stroke="white" stroke-width="1.5" stroke-linecap="round"/>
</svg>
