<svg width="146" height="22" viewBox="0 0 146 22" fill="none" xmlns="http://www.w3.org/2000/svg">
<path d="M69 6.40552C68.5858 6.40552 68.25 6.7413 68.25 7.15552C68.25 7.56973 68.5858 7.90552 69 7.90552V6.40552ZM77 7.90552C77.4142 7.90552 77.75 7.56973 77.75 7.15552C77.75 6.7413 77.4142 6.40552 77 6.40552V7.90552ZM69 10.4055C68.5858 10.4055 68.25 10.7413 68.25 11.1555C68.25 11.5697 68.5858 11.9055 69 11.9055V10.4055ZM73 11.9055C73.4142 11.9055 73.75 11.5697 73.75 11.1555C73.75 10.7413 73.4142 10.4055 73 10.4055V11.9055ZM82.782 15.0635L83.4503 15.404V15.404L82.782 15.0635ZM81.908 15.9375L82.2485 16.6058L81.908 15.9375ZM81.908 2.3735L82.2485 1.70525L82.2485 1.70525L81.908 2.3735ZM82.782 3.24754L83.4503 2.90704V2.90704L82.782 3.24754ZM64.092 2.3735L64.4325 3.04176L64.4325 3.04176L64.092 2.3735ZM63.218 3.24754L63.8862 3.58803L63.8862 3.58803L63.218 3.24754ZM64.2073 19.5416L64.64 20.1542L64.6401 20.1542L64.2073 19.5416ZM68.1699 16.742L67.7371 16.1295H67.7371L68.1699 16.742ZM63.0903 19.6331L63.7049 19.2032H63.7049L63.0903 19.6331ZM64.1033 19.6038L63.7683 18.9328L63.7683 18.9328L64.1033 19.6038ZM63.4269 19.8411L63.3173 20.5831H63.3173L63.4269 19.8411ZM64.1698 19.5675L63.7655 18.9358L63.7654 18.9359L64.1698 19.5675ZM64.1438 19.5831L63.7785 18.928L63.7784 18.9281L64.1438 19.5831ZM69.2683 16.1895L69.4059 16.9267L69.4059 16.9267L69.2683 16.1895ZM68.8005 16.3381L69.1135 17.0196L69.1135 17.0196L68.8005 16.3381ZM69 7.90552H77V6.40552H69V7.90552ZM69 11.9055H73V10.4055H69V11.9055ZM66.2 2.90552H79.8V1.40552H66.2V2.90552ZM82.25 5.35552V12.9555H83.75V5.35552H82.25ZM82.25 12.9555C82.25 13.5279 82.2494 13.9122 82.2252 14.208C82.2018 14.4952 82.1599 14.6324 82.1138 14.723L83.4503 15.404C83.6221 15.0667 83.6892 14.7101 83.7203 14.3302C83.7506 13.9591 83.75 13.5032 83.75 12.9555H82.25ZM79.8 16.9055C80.3477 16.9055 80.8035 16.9061 81.1747 16.8758C81.5546 16.8447 81.9112 16.7776 82.2485 16.6058L81.5675 15.2693C81.4769 15.3154 81.3396 15.3573 81.0525 15.3808C80.7566 15.4049 80.3724 15.4055 79.8 15.4055V16.9055ZM82.1138 14.723C81.9939 14.9582 81.8027 15.1494 81.5675 15.2693L82.2485 16.6058C82.7659 16.3421 83.1866 15.9214 83.4503 15.404L82.1138 14.723ZM79.8 2.90552C80.3724 2.90552 80.7566 2.9061 81.0525 2.93028C81.3396 2.95373 81.4769 2.99562 81.5675 3.04176L82.2485 1.70525C81.9112 1.53341 81.5546 1.46629 81.1747 1.43526C80.8035 1.40493 80.3477 1.40552 79.8 1.40552V2.90552ZM83.75 5.35552C83.75 4.80784 83.7506 4.35198 83.7203 3.98085C83.6892 3.60096 83.6221 3.24431 83.4503 2.90704L82.1138 3.58803C82.1599 3.67859 82.2018 3.81587 82.2252 4.103C82.2494 4.39887 82.25 4.78309 82.25 5.35552H83.75ZM81.5675 3.04176C81.8027 3.1616 81.9939 3.35283 82.1138 3.58803L83.4503 2.90704C83.1866 2.3896 82.7659 1.9689 82.2485 1.70525L81.5675 3.04176ZM66.2 1.40552C65.6523 1.40552 65.1965 1.40493 64.8253 1.43526C64.4454 1.46629 64.0888 1.53341 63.7515 1.70525L64.4325 3.04176C64.5231 2.99562 64.6604 2.95373 64.9475 2.93028C65.2434 2.9061 65.6276 2.90552 66.2 2.90552V1.40552ZM63.75 5.35552C63.75 4.78309 63.7506 4.39887 63.7748 4.103C63.7982 3.81587 63.8401 3.67859 63.8862 3.58803L62.5497 2.90704C62.3779 3.24431 62.3108 3.60096 62.2797 3.98085C62.2494 4.35198 62.25 4.80784 62.25 5.35552H63.75ZM63.7515 1.70525C63.2341 1.9689 62.8134 2.3896 62.5497 2.90704L63.8862 3.58803C64.0061 3.35283 64.1973 3.1616 64.4325 3.04176L63.7515 1.70525ZM79.8 15.4055H70.0164V16.9055H79.8V15.4055ZM64.6401 20.1542L68.6027 17.3545L67.7371 16.1295L63.7746 18.9291L64.6401 20.1542ZM62.25 18.8611C62.25 19.0608 62.2493 19.2622 62.2644 19.4278C62.2795 19.5923 62.3174 19.8366 62.4757 20.0629L63.7049 19.2032C63.7729 19.3005 63.7657 19.3731 63.7582 19.291C63.755 19.2564 63.7526 19.2065 63.7513 19.1315C63.75 19.0569 63.75 18.9701 63.75 18.8611H62.25ZM63.7683 18.9328C63.6812 18.9763 63.6117 19.0107 63.5523 19.0387C63.4924 19.0669 63.4529 19.0838 63.426 19.0939C63.3629 19.1177 63.4237 19.0825 63.5365 19.0992L63.3173 20.5831C63.5784 20.6216 63.8037 20.5546 63.9549 20.4976C64.1054 20.4409 64.2743 20.3568 64.4384 20.2748L63.7683 18.9328ZM62.4757 20.0629C62.6727 20.3447 62.9772 20.5328 63.3173 20.5831L63.5365 19.0992C63.6046 19.1092 63.6655 19.1469 63.7049 19.2032L62.4757 20.0629ZM63.75 18.8611V5.35552H62.25V18.8611H63.75ZM63.7746 18.929C63.7698 18.9324 63.7664 18.9349 63.7634 18.937C63.7604 18.939 63.7589 18.9401 63.758 18.9407C63.7567 18.9416 63.76 18.9393 63.7655 18.9358L64.5742 20.1991C64.6015 20.1817 64.6269 20.1635 64.64 20.1542L63.7746 18.929ZM64.4384 20.2748C64.4531 20.2675 64.4808 20.2539 64.5091 20.2381L63.7784 18.9281C63.784 18.925 63.7875 18.9232 63.7862 18.9238C63.7854 18.9243 63.7837 18.9251 63.7805 18.9267C63.7773 18.9283 63.7735 18.9302 63.7683 18.9328L64.4384 20.2748ZM63.7654 18.9359C63.7697 18.9331 63.774 18.9305 63.7785 18.928L64.509 20.2381C64.5311 20.2258 64.553 20.2127 64.5743 20.1991L63.7654 18.9359ZM70.0164 15.4055C69.666 15.4055 69.3965 15.4026 69.1307 15.4522L69.4059 16.9267C69.5039 16.9084 69.6118 16.9055 70.0164 16.9055V15.4055ZM68.6027 17.3545C68.9331 17.1211 69.0229 17.0612 69.1135 17.0196L68.4874 15.6565C68.2417 15.7694 68.0232 15.9273 67.7371 16.1295L68.6027 17.3545ZM69.1307 15.4522C68.9087 15.4936 68.6927 15.5623 68.4874 15.6565L69.1135 17.0196C69.2068 16.9768 69.305 16.9456 69.4059 16.9267L69.1307 15.4522Z" fill="#807D7E"/>
</svg>
